<?xml version="1.0" standalone="yes"?>
<svg width="2050" height="780">
<path style="fill:#00c2cb; stroke:none;" d="M0 0L0 780L2050 780L2050 0L0 0z"/>
<path style="fill:#000000; stroke:none;" d="M1738 142L1738 174C1723.96 174 1708.53 171.922 1698.52 184.04C1687.96 196.809 1692 217.448 1692 233L1692 352L1722 359L1722 251L1942 251L1942 423L1849 423L1849 454L1925 454C1937.29 454 1950.96 455.395 1961 446.787C1977.83 432.349 1972 403.897 1972 384L1972 255C1972 236.728 1976.16 212.536 1970.96 195C1967.67 183.937 1957.66 174.949 1946 174.09C1941.05 173.726 1930.39 176.18 1926.6 172.397C1921.76 167.552 1925 148.623 1925 142L1895 142C1895 148.622 1898.24 167.552 1893.4 172.397C1888.35 177.441 1867.91 174 1861 174L1769 174L1769 142L1738 142z"/>
<path style="fill:#00868d; stroke:none;" d="M1769 142L1769 173L1770 173L1769 142z"/>
<path style="fill:#00383b; stroke:none;" d="M1894 142L1894 173L1895 173L1894 142z"/>
<path style="fill:#005a5f; stroke:none;" d="M1925 142L1925 173L1926 173L1925 142z"/>
<path style="fill:#003032; stroke:none;" d="M1717 173L1717 174L1738 174L1717 173M1769 173L1769 174L1894 174C1883.97 169.792 1866.9 173 1856 173L1769 173M1926 173L1926 174L1945 174L1926 173z"/>
<path style="fill:#004e52; stroke:none;" d="M1713.67 174.333L1714.33 174.667L1713.67 174.333z"/>
<path style="fill:#006d72; stroke:none;" d="M1691 198L1691 351L1692 351L1692 244C1692 231.009 1696.01 209.931 1691 198M1722 251L1722 323L1721 360C1725.76 355.839 1723 340.136 1723 334L1723 277C1723 269.256 1725 258.159 1722 251z"/>
<path style="fill:#009198; stroke:none;" d="M1723 251L1723 252L1941 252L1920 251L1876 251L1723 251z"/>
<path style="fill:#001e1f; stroke:none;" d="M1941 251L1941 423L1942 423L1942 302C1942 287.7 1946.51 264.121 1941 251z"/>
<path style="fill:#00c2cb; stroke:none;" d="M1723 252L1723 325C1723 335.061 1720.43 349.148 1723.32 358.776C1725.03 364.463 1738.21 370.763 1742.33 376C1752.85 389.369 1755 405.522 1755 422L1791 422C1791 408.031 1795.22 386.081 1790.4 373C1786.96 363.679 1768.87 347.138 1760 343L1760 341C1764.93 338.7 1772.58 326.784 1778 328.207C1789.7 331.279 1798.88 359.504 1813 354.396C1819.5 352.043 1825.22 343.784 1830 339L1868 301C1872.29 296.711 1879.01 286.78 1885 285.207C1890.42 283.784 1902.19 296.939 1898.7 302C1892.1 311.583 1881.23 319.77 1873 328C1861.49 339.506 1850.3 353.628 1837 363L1841 382C1851.35 377.624 1860.01 368.724 1870 363.309C1888.92 353.054 1906.77 350 1928 350L1922 403C1895.78 403 1874.25 409.159 1849 415L1849 422L1941 422L1941 252L1723 252z"/>
<path style="fill:#80e0e5; stroke:none;" d="M362 279L362 280L428 280L407 279L362 279M548 279L548 280L615 280L594 279L548 279z"/>
<path style="fill:#a8eaed; stroke:none;" d="M358.667 280.333L359.333 280.667L358.667 280.333z"/>
<path style="fill:#ffffff; stroke:none;" d="M336 545L391 545L398 325C410.916 325.421 412.509 355.53 415.127 366C422.706 396.317 430.047 426.683 437.627 457C440.863 469.946 441.855 487.66 449.133 498.996C458.727 513.937 496.325 509.404 512 507.829C518.058 507.221 523.517 505.021 527.197 499.96C536.727 486.85 538.172 461.66 541.884 446C551.325 406.178 565.54 365.55 571 325L579 325L587 545L642 545C642 484.002 635.508 422.965 634.015 362C633.623 346.004 632.001 329.98 632 314C631.999 306.104 633.062 294.776 628.347 288.004C623.319 280.781 616.11 280.003 608 280L559 280C549.543 280 540.399 279.733 534.105 288.174C524.482 301.08 523.489 324.55 519.627 340C509.267 381.438 494.486 425.314 491 468C484.483 466.961 484.71 461.593 483.866 456C482.255 445.329 479.741 434.471 477.127 424C469.427 393.163 460.729 362.156 454.449 331C451.819 317.951 449.866 296.147 440.671 286.105C434.702 279.586 426.108 280 418 280C399.648 280 380.239 278.183 362 280.174C355.44 280.889 349.635 284.652 347.263 291C344.699 297.862 345.505 304.905 344.83 312C342.994 331.294 343.808 350.645 342.961 370C340.41 428.24 336 486.653 336 545z"/>
<path style="fill:#58d7dd; stroke:none;" d="M430.667 280.333L431.333 280.667L430.667 280.333z"/>
<path style="fill:#6edde2; stroke:none;" d="M617.667 280.333L618.333 280.667L617.667 280.333z"/>
<path style="fill:#000000; stroke:none;" d="M1814 355C1822.49 355 1836.62 351.468 1837 363C1843.73 359.862 1848.8 353.199 1854 348L1885 317C1889.29 312.715 1899.15 306.03 1900.65 300C1901.77 295.52 1891.03 285.35 1887 284.346C1881.28 282.921 1871.64 296.364 1868 300C1850.46 317.536 1828.27 334.739 1814 355z"/>
<path style="fill:#a8eaed; stroke:none;" d="M346.333 292.667L346.667 293.333L346.333 292.667z"/>
<path style="fill:#7ce0e4; stroke:none;" d="M345 296L345 299L346 299L345 296z"/>
<path style="fill:#c2f0f3; stroke:none;" d="M631 296L631 301L632 301L631 296z"/>
<path style="fill:#99e6ea; stroke:none;" d="M446.333 297.667L446.667 298.333L446.333 297.667z"/>
<path style="fill:#94e5e9; stroke:none;" d="M447.333 301.667L447.667 302.333L447.333 301.667z"/>
<path style="fill:#a2e9ec; stroke:none;" d="M528.333 302.667L528.667 303.333L528.333 302.667z"/>
<path style="fill:#8de4e8; stroke:none;" d="M448.333 305.667L448.667 306.333L448.333 305.667z"/>
<path style="fill:#98e6ea; stroke:none;" d="M527.333 306.667L527.667 307.333L527.333 306.667z"/>
<path style="fill:#58d7dd; stroke:none;" d="M344 307L344 315L345 315L344 307z"/>
<path style="fill:#87e2e6; stroke:none;" d="M449.333 309.667L449.667 310.333L449.333 309.667z"/>
<path style="fill:#62d9df; stroke:none;" d="M632 309L632 315L633 315L632 309z"/>
<path style="fill:#8fe4e8; stroke:none;" d="M526.333 310.667L526.667 311.333L526.333 310.667z"/>
<path style="fill:#80e1e5; stroke:none;" d="M450.333 313.667L450.667 314.333L450.333 313.667z"/>
<path style="fill:#86e2e6; stroke:none;" d="M525.333 314.667L525.667 315.333L525.333 314.667z"/>
<path style="fill:#cff4f5; stroke:none;" d="M632 315L632 325L633 325L632 315z"/>
<path style="fill:#7de0e4; stroke:none;" d="M524.333 318.667L524.667 319.333L524.333 318.667z"/>
<path style="fill:#52d5db; stroke:none;" d="M398 325L398 334L399 334L399 326L405 326L398 325z"/>
<path style="fill:#40d2d8; stroke:none;" d="M571 327L578 326L571 327z"/>
<path style="fill:#97e6ea; stroke:none;" d="M578 325L578 337L579 337L578 325z"/>
<path style="fill:#67dae0; stroke:none;" d="M405.333 326.667L405.667 327.333L405.333 326.667z"/>
<path style="fill:#000000; stroke:none;" d="M1791 372L1791 355L1806 355C1800.77 347.57 1793.42 341.416 1787 335C1784.58 332.579 1781.48 328.214 1778 327.346C1773.56 326.24 1762.21 337.685 1762.21 342C1762.21 345.503 1766.78 348.773 1769 351C1776.05 358.061 1782.84 366.249 1791 372z"/>
<path style="fill:#a9eaed; stroke:none;" d="M522.333 327.667L522.667 328.333L522.333 327.667z"/>
<path style="fill:#78dfe3; stroke:none;" d="M570.333 328.667L570.667 329.333L570.333 328.667z"/>
<path style="fill:#32ced5; stroke:none;" d="M633 329L633 337L634 337L633 329z"/>
<path style="fill:#6bdbe1; stroke:none;" d="M406.333 330.667L406.667 331.333L406.333 330.667z"/>
<path style="fill:#a5e9ed; stroke:none;" d="M454.333 330.667L454.667 331.333L454.333 330.667z"/>
<path style="fill:#a0e8ec; stroke:none;" d="M521.333 331.667L521.667 332.333L521.333 331.667z"/>
<path style="fill:#4dd4da; stroke:none;" d="M343 332L343 339L344 339L343 332z"/>
<path style="fill:#7ee0e5; stroke:none;" d="M569.333 332.667L569.667 333.333L569.333 332.667z"/>
<path style="fill:#70dde2; stroke:none;" d="M407.333 334.667L407.667 335.333L407.333 334.667z"/>
<path style="fill:#9fe8eb; stroke:none;" d="M455.333 334.667L455.667 335.333L455.333 334.667z"/>
<path style="fill:#97e6ea; stroke:none;" d="M520.333 335.667L520.667 336.333L520.333 335.667z"/>
<path style="fill:#95e6e9; stroke:none;" d="M633 337L633 346L634 346L633 337z"/>
<path style="fill:#74dee3; stroke:none;" d="M408.333 338.667L408.667 339.333L408.333 338.667z"/>
<path style="fill:#98e6ea; stroke:none;" d="M456.333 338.667L456.667 339.333L456.333 338.667z"/>
<path style="fill:#8de4e8; stroke:none;" d="M519.333 339.667L519.667 340.333L519.333 339.667z"/>
<path style="fill:#00757a; stroke:none;" d="M1760.33 341.667L1760.67 342.333L1760.33 341.667z"/>
<path style="fill:#79dfe4; stroke:none;" d="M409.333 342.667L409.667 343.333L409.333 342.667z"/>
<path style="fill:#92e5e9; stroke:none;" d="M457.333 342.667L457.667 343.333L457.333 342.667z"/>
<path style="fill:#84e1e6; stroke:none;" d="M518.333 343.667L518.667 344.333L518.333 343.667z"/>
<path style="fill:#a8eaed; stroke:none;" d="M397 345L397 352L398 352L397 345z"/>
<path style="fill:#7de0e4; stroke:none;" d="M410.333 346.667L410.667 347.333L410.333 346.667z"/>
<path style="fill:#8ce3e7; stroke:none;" d="M458.333 346.667L458.667 347.333L458.333 346.667z"/>
<path style="fill:#7bdfe4; stroke:none;" d="M517.333 347.667L517.667 348.333L517.333 347.667z"/>
<path style="fill:#5ad7dd; stroke:none;" d="M565.333 349.667L565.667 350.333L565.333 349.667z"/>
<path style="fill:#7be0e4; stroke:none;" d="M211 350L211 351L216 351L211 350z"/>
<path style="fill:#ffffff; stroke:none;" d="M298 500C284.667 502.477 271.428 502.17 258 503.09C242.595 504.144 224.939 505.936 211 497.647C203.266 493.049 198.707 485.449 196.209 477C189.889 455.618 189.203 418.19 209 403.613C230.255 387.961 269.373 397 294 397L299 361C258.729 351.461 207.861 339.689 169 361.873C129.209 384.588 130.231 445.679 136.919 485C139.63 500.938 144.909 517.562 157.004 528.91C183.671 553.928 234.36 552.686 268 546.197C276.039 544.646 295.861 543.526 300.958 536.301C302.738 533.776 301.184 528.833 300.845 526C299.8 517.276 298.001 508.807 298 500z"/>
<path style="fill:#6bdce1; stroke:none;" d="M244 350L244 351L249 351L244 350z"/>
<path style="fill:#85e2e6; stroke:none;" d="M459.333 350.667L459.667 351.333L459.333 350.667z"/>
<path style="fill:#aeebee; stroke:none;" d="M757 350L757 351L774 351L757 350z"/>
<path style="fill:#ffffff; stroke:none;" d="M687 359L692 397C716.352 397 740.628 394 765 394C775.278 394 788.557 392.993 796.815 400.39C804.046 406.868 803.994 419.014 804 428L744 428C729.367 428 713.069 427.881 700 435.465C668.045 454.006 669.099 516.757 698 537.841C734.183 564.238 782.644 544.504 810 516L815 545L860 545L860 424C860 402.767 858.72 378.965 841 364.329C827.928 353.531 810.134 352.015 794 350.91C757.586 348.417 723.024 356.133 687 359z"/>
<path style="fill:#c0f0f2; stroke:none;" d="M790 350L790 351L799 351L790 350z"/>
<path style="fill:#8de3e7; stroke:none;" d="M1024 350L1024 351L1031 351L1024 350z"/>
<path style="fill:#ffffff; stroke:none;" d="M955 383C954.758 377.352 954.899 360.753 950.258 357.028C947.519 354.828 941.289 356 938 356L906 356L906 545L962 545L962 455C962 444.681 958.488 426.672 962.603 417.213C964.641 412.53 972.728 410.62 977 408.694C989.715 402.962 1016.68 389.915 1028.66 403.109C1037.34 412.666 1034 431.144 1034 443L1034 545L1090 545L1090 433C1090 414.351 1092.93 392.368 1084.67 375C1069.71 343.525 1026.25 347.192 999 357.09C982.558 363.062 969.609 373.902 955 383z"/>
<path style="fill:#61d9df; stroke:none;" d="M1046 350L1046 351L1049 351L1046 350z"/>
<path style="fill:#a8eaed; stroke:none;" d="M1207 350L1207 351L1223 351L1207 350z"/>
<path style="fill:#ffffff; stroke:none;" d="M1136 359L1141 397C1165.66 396.984 1190.32 394 1215 394C1225.07 394 1238.1 393.515 1245.87 401.189C1252.97 408.203 1252 418.885 1252 428L1195 428C1181.68 428 1167.61 427.366 1155 432.453C1129.09 442.909 1126 464.192 1126 489C1126 501.903 1127.38 516.424 1135.53 527C1165.31 565.654 1231.62 550.616 1258 516L1264 545L1308 545L1308 425C1308 404.554 1308.3 381.441 1291.91 366.3C1278.07 353.522 1258.79 351.74 1241 350.961C1205.29 349.397 1171.41 356.205 1136 359z"/>
<path style="fill:#cff3f5; stroke:none;" d="M1236 350L1236 351L1245 351L1236 350z"/>
<path style="fill:#63dadf; stroke:none;" d="M1245 350L1245 351L1250 351L1245 350z"/>
<path style="fill:#89e2e7; stroke:none;" d="M1413 350L1413 351L1422 351L1413 350z"/>
<path style="fill:#ffffff; stroke:none;" d="M1375 463C1353.38 474.221 1356.1 504.683 1369 521C1358.78 525.278 1348.74 531.964 1343.49 542C1333.86 560.424 1340.13 592.111 1357 604.211C1376.49 618.19 1407.02 618 1430 618C1459.55 618 1509.54 622.428 1529.21 595C1535.41 586.36 1536.95 576.256 1538.28 566C1539.36 557.69 1539.01 549.263 1537.54 541C1529.34 495.035 1469.86 498.845 1434 494.833C1423.89 493.702 1394.8 491.765 1402.15 474.059C1404.6 468.169 1412.03 470.128 1417 470.715C1430.02 472.251 1444.91 471.812 1458 470.91C1474.28 469.789 1494.85 466.796 1508 456.481C1529.69 439.471 1527.47 406.881 1522 383L1545 380L1547 356C1527.98 356 1507.91 357.85 1489 355.826C1453.48 352.024 1417.22 344.569 1382 356.696C1347.66 368.52 1337.99 413.711 1355.17 444C1360.01 452.524 1367.71 456.953 1375 463z"/>
<path style="fill:#73dee3; stroke:none;" d="M1452 350L1452 351L1457 351L1452 350z"/>
<path style="fill:#75dee3; stroke:none;" d="M1646 350L1646 351L1650 351L1646 350z"/>
<path style="fill:#ffffff; stroke:none;" d="M1745 500C1737.1 501.467 1728.98 501.407 1721 502.17C1689.78 505.152 1631 514.889 1629 469L1696 469C1711.34 469 1730.25 467.486 1741.54 455.7C1764.29 431.946 1757.57 379.392 1729 363.174C1702.89 348.35 1668.89 348.376 1640 351.845C1622.12 353.992 1604.6 358.61 1591.09 371.289C1580.88 380.872 1576.28 393.896 1572.85 407C1563.96 440.946 1564.31 493.144 1586.68 522C1612.94 555.87 1668.47 550.579 1706 547.075C1716.43 546.101 1726.99 543.327 1737 540.279C1740.25 539.29 1745.84 538.18 1747.97 535.301C1750.14 532.372 1748.62 527.214 1748 524C1746.49 516.13 1745.07 508.026 1745 500z"/>
<path style="fill:#74dee3; stroke:none;" d="M1677 350L1677 351L1684 351L1677 350z"/>
<path style="fill:#c6f1f3; stroke:none;" d="M1906 350L1906 351L1917 351L1906 350z"/>
<path style="fill:#ffffff; stroke:none;" d="M1841 382L1836 356L1792 356L1792 545L1848 545L1848 450C1848 442.444 1844.46 422.314 1849.6 416.51C1853.3 412.341 1862.82 411.056 1868 409.579C1886.19 404.388 1903.12 402 1922 402L1927 350C1891.53 350.004 1870.09 363.887 1841 382z"/>
<path style="fill:#7fe0e5; stroke:none;" d="M1927 350L1927 355L1928 355L1927 350z"/>
<path style="fill:#a2e8ec; stroke:none;" d="M203 351L203 352L208 352L203 351z"/>
<path style="fill:#3ed1d8; stroke:none;" d="M257 351L257 352L261 352L257 351z"/>
<path style="fill:#85e1e6; stroke:none;" d="M741 351L741 352L746 352L741 351z"/>
<path style="fill:#8ee4e8; stroke:none;" d="M805 351L805 352L808 352L805 351z"/>
<path style="fill:#81e0e5; stroke:none;" d="M1019.67 351.333L1020.33 351.667L1019.67 351.333z"/>
<path style="fill:#72dee3; stroke:none;" d="M1051.67 351.333L1052.33 351.667L1051.67 351.333z"/>
<path style="fill:#86e2e6; stroke:none;" d="M1193 351L1193 352L1200 352L1193 351z"/>
<path style="fill:#87e2e6; stroke:none;" d="M1405 351L1405 352L1409 352L1405 351z"/>
<path style="fill:#76dfe3; stroke:none;" d="M1465 351L1465 352L1468 352L1465 351z"/>
<path style="fill:#9ae7ea; stroke:none;" d="M1638 351L1638 352L1643 352L1638 351z"/>
<path style="fill:#aaeaed; stroke:none;" d="M1688 351L1688 352L1692 352L1688 351z"/>
<path style="fill:#6edde2; stroke:none;" d="M1900 351L1900 352L1903 352L1900 351z"/>
<path style="fill:#64dae0; stroke:none;" d="M197 352L197 353L200 353L197 352z"/>
<path style="fill:#a9eaed; stroke:none;" d="M264 352L264 353L267 353L264 352z"/>
<path style="fill:#aaebee; stroke:none;" d="M579 352L579 359L580 359L579 352z"/>
<path style="fill:#8ce3e7; stroke:none;" d="M811 352L811 353L814 353L811 352z"/>
<path style="fill:#75dee3; stroke:none;" d="M1013.67 352.333L1014.33 352.667L1013.67 352.333z"/>
<path style="fill:#69dbe1; stroke:none;" d="M1055.67 352.333L1056.33 352.667L1055.67 352.333z"/>
<path style="fill:#80e0e5; stroke:none;" d="M1180 352L1180 353L1184 353L1180 352z"/>
<path style="fill:#73dee3; stroke:none;" d="M1260 352L1260 353L1263 353L1260 352z"/>
<path style="fill:#bbeff1; stroke:none;" d="M1399 352L1399 353L1403 353L1399 352z"/>
<path style="fill:#91e4e8; stroke:none;" d="M1471 352L1471 353L1474 353L1471 352z"/>
<path style="fill:#59d8dd; stroke:none;" d="M1632 352L1632 353L1635 353L1632 352z"/>
<path style="fill:#939393; stroke:none;" d="M1696 352L1696 353L1699 353L1696 352z"/>
<path style="fill:#a6e9ed; stroke:none;" d="M1896.67 352.333L1897.33 352.667L1896.67 352.333z"/>
<path style="fill:#7ee1e5; stroke:none;" d="M192.667 353.333L193.333 353.667L192.667 353.333z"/>
<path style="fill:#8be3e7; stroke:none;" d="M270.667 353.333L271.333 353.667L270.667 353.333z"/>
<path style="fill:#61d9df; stroke:none;" d="M564.333 353.667L564.667 354.333L564.333 353.667z"/>
<path style="fill:#8ce3e7; stroke:none;" d="M721 353L721 354L725 354L721 353z"/>
<path style="fill:#5fd9df; stroke:none;" d="M816.667 353.333L817.333 353.667L816.667 353.333z"/>
<path style="fill:#97e6e9; stroke:none;" d="M1394 353L1394 354L1397 354L1394 353z"/>
<path style="fill:#86e2e6; stroke:none;" d="M1477 353L1477 354L1480 354L1477 353z"/>
<path style="fill:#9c9c9c; stroke:none;" d="M1701 353L1701 354L1704 354L1701 353z"/>
<path style="fill:#85e1e6; stroke:none;" d="M188.667 354.333L189.333 354.667L188.667 354.333z"/>
<path style="fill:#84e1e6; stroke:none;" d="M275 354L275 355L278 355L275 354z"/>
<path style="fill:#7fe0e5; stroke:none;" d="M460.333 354.667L460.667 355.333L460.333 354.667z"/>
<path style="fill:#5dd9de; stroke:none;" d="M714 354L714 355L717 355L714 354z"/>
<path style="fill:#5bd8de; stroke:none;" d="M1164 354L1164 355L1167 355L1164 354z"/>
<path style="fill:#6fdde2; stroke:none;" d="M1268.67 354.333L1269.33 354.667L1268.67 354.333z"/>
<path style="fill:#a9eaed; stroke:none;" d="M1390.67 354.333L1391.33 354.667L1390.67 354.333z"/>
<path style="fill:#74dee3; stroke:none;" d="M1482.67 354.333L1483.33 354.667L1482.67 354.333z"/>
<path style="fill:#8ce3e7; stroke:none;" d="M184.667 355.333L185.333 355.667L184.667 355.333z"/>
<path style="fill:#92e5e8; stroke:none;" d="M706 355L706 356L710 356L706 355z"/>
<path style="fill:#a6eaed; stroke:none;" d="M905 355L905 545L906 545L906 356L937 356L951 358C952.663 353.589 943.691 355 941 355L905 355z"/>
<path style="fill:#a3e9ec; stroke:none;" d="M1003.67 355.333L1004.33 355.667L1003.67 355.333z"/>
<path style="fill:#60d9df; stroke:none;" d="M1157 355L1157 356L1160 356L1157 355z"/>
<path style="fill:#c0f0f2; stroke:none;" d="M1486 355L1486 356L1547 356L1547 361L1548 361L1548 355L1486 355z"/>
<path style="fill:#85e1e6; stroke:none;" d="M1619.67 355.333L1620.33 355.667L1619.67 355.333z"/>
<path style="fill:#474747; stroke:none;" d="M1710.67 355.333L1711.33 355.667L1710.67 355.333z"/>
<path style="fill:#3f3f3f; stroke:none;" d="M1791 355L1791 373L1792 373L1791 355z"/>
<path style="fill:#c0c0c0; stroke:none;" d="M1792 355L1792 356L1807 356L1792 355z"/>
<path style="fill:#c0f0f2; stroke:none;" d="M1807 355L1807 356L1813 356L1807 355z"/>
<path style="fill:#c0c0c0; stroke:none;" d="M1813 355L1813 356L1836 356L1813 355z"/>
<path style="fill:#a7eaed; stroke:none;" d="M515.333 356.667L515.667 357.333L515.333 356.667z"/>
<path style="fill:#86e2e6; stroke:none;" d="M701 356L701 357L704 357L701 356z"/>
<path style="fill:#6fdde2; stroke:none;" d="M1151 356L1151 357L1154 357L1151 356z"/>
<path style="fill:#9d9d9d; stroke:none;" d="M1713 356L1714 357L1713 356z"/>
<path style="fill:#606060; stroke:none;" d="M1836 356L1836 359L1837 359L1836 356z"/>
<path style="fill:#68dbe0; stroke:none;" d="M563.333 357.667L563.667 358.333L563.333 357.667z"/>
<path style="fill:#74dee3; stroke:none;" d="M695.667 357.333L696.333 357.667L695.667 357.333z"/>
<path style="fill:#a7eaed; stroke:none;" d="M1144 357L1144 358L1148 358L1144 357z"/>
<path style="fill:#808080; stroke:none;" d="M1716 357L1717 358L1716 357z"/>
<path style="fill:#63dadf; stroke:none;" d="M689 358L689 359L692 359L689 358z"/>
<path style="fill:#67dbe0; stroke:none;" d="M1138 358L1138 359L1141 359L1138 358z"/>
<path style="fill:#646464; stroke:none;" d="M1719 358L1720 359L1719 358z"/>
<path style="fill:#6ddce1; stroke:none;" d="M579 359L579 366L580 366L579 359z"/>
<path style="fill:#80e1e5; stroke:none;" d="M1135 359L1135 362L1136 362L1135 359z"/>
<path style="fill:#9ee8eb; stroke:none;" d="M514.333 360.667L514.667 361.333L514.333 360.667z"/>
<path style="fill:#91e5e9; stroke:none;" d="M634 360L634 368L635 368L634 360z"/>
<path style="fill:#aeecef; stroke:none;" d="M952 360L952 364L953 364L952 360z"/>
<path style="fill:#7ee0e5; stroke:none;" d="M342 361L342 367L343 367L342 361z"/>
<path style="fill:#6edce1; stroke:none;" d="M562.333 361.667L562.667 362.333L562.333 361.667z"/>
<path style="fill:#9ce7eb; stroke:none;" d="M687 361L687 364L688 364L687 361z"/>
<path style="fill:#95e6e9; stroke:none;" d="M513.333 364.667L513.667 365.333L513.333 364.667z"/>
<path style="fill:#75dee3; stroke:none;" d="M561.333 365.667L561.667 366.333L561.333 365.667z"/>
<path style="fill:#62d9df; stroke:none;" d="M1136 365L1136 370L1137 370L1136 365z"/>
<path style="fill:#a6eaed; stroke:none;" d="M298 366L298 369L299 369L298 366z"/>
<path style="fill:#bbeff1; stroke:none;" d="M342 367L342 375L343 375L342 367z"/>
<path style="fill:#aaebee; stroke:none;" d="M463.333 367.667L463.667 368.333L463.333 367.667z"/>
<path style="fill:#6ddce1; stroke:none;" d="M953 367L953 370L954 370L953 367z"/>
<path style="fill:#8ce3e7; stroke:none;" d="M512.333 368.667L512.667 369.333L512.333 368.667z"/>
<path style="fill:#a2e9ec; stroke:none;" d="M688 368L688 371L689 371L688 368z"/>
<path style="fill:#86e2e6; stroke:none;" d="M1838 368L1838 371L1839 371L1838 368z"/>
<path style="fill:#80e1e5; stroke:none;" d="M1925 368L1925 374L1926 374L1925 368z"/>
<path style="fill:#7bdfe4; stroke:none;" d="M560.333 369.667L560.667 370.333L560.333 369.667z"/>
<path style="fill:#88e2e7; stroke:none;" d="M396 371L396 385L397 385L396 371z"/>
<path style="fill:#58d7dd; stroke:none;" d="M416.333 371.667L416.667 372.333L416.333 371.667z"/>
<path style="fill:#a4e9ec; stroke:none;" d="M464.333 371.667L464.667 372.333L464.333 371.667z"/>
<path style="fill:#9ee8eb; stroke:none;" d="M297 372L297 375L298 375L297 372z"/>
<path style="fill:#82e1e5; stroke:none;" d="M511.333 372.667L511.667 373.333L511.333 372.667z"/>
<path style="fill:#67dae0; stroke:none;" d="M1137 372L1137 377L1138 377L1137 372z"/>
<path style="fill:#82e1e5; stroke:none;" d="M559.333 373.667L559.667 374.333L559.333 373.667z"/>
<path style="fill:#9fe8eb; stroke:none;" d="M954 373L954 378L955 378L954 373z"/>
<path style="fill:#3fd1d8; stroke:none;" d="M1791 373L1791 423L1792 423C1792 408.951 1796.41 385.889 1791 373z"/>
<path style="fill:#6bdbe1; stroke:none;" d="M1839.33 373.667L1839.67 374.333L1839.33 373.667z"/>
<path style="fill:#5dd8de; stroke:none;" d="M417.333 375.667L417.667 376.333L417.333 375.667z"/>
<path style="fill:#9de8eb; stroke:none;" d="M465.333 375.667L465.667 376.333L465.333 375.667z"/>
<path style="fill:#60d9de; stroke:none;" d="M689 375L689 379L690 379L689 375z"/>
<path style="fill:#a9eaed; stroke:none;" d="M580 377L580 386L581 386L580 377z"/>
<path style="fill:#71dde2; stroke:none;" d="M1545 377L1545 380L1546 380L1545 377z"/>
<path style="fill:#80e1e5; stroke:none;" d="M1924 377L1924 384L1925 384L1924 377z"/>
<path style="fill:#96e6ea; stroke:none;" d="M296.333 378.667L296.667 379.333L296.333 378.667z"/>
<path style="fill:#61d9df; stroke:none;" d="M418.333 379.667L418.667 380.333L418.333 379.667z"/>
<path style="fill:#97e6ea; stroke:none;" d="M466.333 379.667L466.667 380.333L466.333 379.667z"/>
<path style="fill:#7ee0e5; stroke:none;" d="M1840.33 379.667L1840.67 380.333L1840.33 379.667z"/>
<path style="fill:#5ed8de; stroke:none;" d="M955 380L955 383L956 383L955 380z"/>
<path style="fill:#5ad8de; stroke:none;" d="M1541 380L1541 381L1545 381L1541 380z"/>
<path style="fill:#62dadf; stroke:none;" d="M1533 381L1533 382L1538 382L1533 381z"/>
<path style="fill:#87e2e6; stroke:none;" d="M341 382L341 394L342 394L341 382z"/>
<path style="fill:#6bdce1; stroke:none;" d="M1525 382L1525 383L1529 383L1525 382z"/>
<path style="fill:#66dae0; stroke:none;" d="M419.333 383.667L419.667 384.333L419.333 383.667z"/>
<path style="fill:#90e4e8; stroke:none;" d="M467.333 383.667L467.667 384.333L467.333 383.667z"/>
<path style="fill:#8ce3e7; stroke:none;" d="M635 383L635 391L636 391L635 383z"/>
<path style="fill:#8de4e8; stroke:none;" d="M295 384L295 387L296 387L295 384z"/>
<path style="fill:#a0e8ec; stroke:none;" d="M508.333 385.667L508.667 386.333L508.333 385.667z"/>
<path style="fill:#57d7dd; stroke:none;" d="M556.333 386.667L556.667 387.333L556.333 386.667z"/>
<path style="fill:#4dd4da; stroke:none;" d="M580 386L580 394L581 394L580 386z"/>
<path style="fill:#76dee3; stroke:none;" d="M1088.33 386.667L1088.67 387.333L1088.33 386.667z"/>
<path style="fill:#b3edef; stroke:none;" d="M1426 386L1426 387L1447 387L1426 386z"/>
<path style="fill:#80e1e5; stroke:none;" d="M1923 386L1923 391L1924 391L1923 386z"/>
<path style="fill:#6adbe0; stroke:none;" d="M420.333 387.667L420.667 388.333L420.333 387.667z"/>
<path style="fill:#8ae3e7; stroke:none;" d="M468.333 387.667L468.667 388.333L468.333 387.667z"/>
<path style="fill:#96e6ea; stroke:none;" d="M1139 387L1139 390L1140 390L1139 387z"/>
<path style="fill:#49d4da; stroke:none;" d="M1419 387L1419 388L1424 388L1419 387z"/>
<path style="fill:#00c2cb; stroke:none;" d="M1424 387.424C1416.92 388.357 1409.66 388.708 1404.39 394.329C1396.67 402.576 1398.31 422.565 1407.04 429.442C1418.31 438.309 1440.78 435.767 1454 433.704C1471.12 431.031 1481.73 406.573 1467.79 393.275C1458.41 384.328 1435.87 385.861 1424 387.424z"/>
<path style="fill:#5ad8de; stroke:none;" d="M1450 387L1450 388L1453 388L1450 387z"/>
<path style="fill:#8fe4e8; stroke:none;" d="M856.333 388.667L856.667 389.333L856.333 388.667z"/>
<path style="fill:#a2e8ec; stroke:none;" d="M1457.67 388.333L1458.33 388.667L1457.67 388.333z"/>
<path style="fill:#97e6ea; stroke:none;" d="M507.333 389.667L507.667 390.333L507.333 389.667z"/>
<path style="fill:#6bdbe1; stroke:none;" d="M691 389L691 394L692 394L691 389z"/>
<path style="fill:#85e2e6; stroke:none;" d="M294 390L294 393L295 393L294 390z"/>
<path style="fill:#5ed8de; stroke:none;" d="M555.333 390.667L555.667 391.333L555.333 390.667z"/>
<path style="fill:#6edce1; stroke:none;" d="M421.333 391.667L421.667 392.333L421.333 391.667z"/>
<path style="fill:#84e1e6; stroke:none;" d="M469.333 391.667L469.667 392.333L469.333 391.667z"/>
<path style="fill:#82e1e5; stroke:none;" d="M1089 391L1089 395L1090 395L1089 391z"/>
<path style="fill:#89e3e7; stroke:none;" d="M1349.33 391.667L1349.67 392.333L1349.33 391.667z"/>
<path style="fill:#8fe4e8; stroke:none;" d="M1661 391L1661 392L1676 392L1661 391z"/>
<path style="fill:#a9eaed; stroke:none;" d="M857.333 392.667L857.667 393.333L857.333 392.667z"/>
<path style="fill:#8ae3e7; stroke:none;" d="M1652.67 392.333L1653.33 392.667L1652.67 392.333z"/>
<path style="fill:#00c2cb; stroke:none;" d="M1628 435L1675 435C1679.35 435 1687.96 436.378 1690.97 432.297C1692.92 429.65 1691.17 424.992 1691.04 422C1690.67 413.63 1690.06 404.169 1692 396C1677.46 390.579 1648.14 386.995 1636.53 400.185C1628.65 409.133 1628 423.671 1628 435z"/>
<path style="fill:#5bd8de; stroke:none;" d="M1678 392L1678 393L1681 393L1678 392z"/>
<path style="fill:#8ee4e8; stroke:none;" d="M506.333 393.667L506.667 394.333L506.333 393.667z"/>
<path style="fill:#72dee3; stroke:none;" d="M1648.67 393.333L1649.33 393.667L1648.67 393.333z"/>
<path style="fill:#65dadf; stroke:none;" d="M554.333 394.667L554.667 395.333L554.333 394.667z"/>
<path style="fill:#b4edef; stroke:none;" d="M747 394L747 395L756 395L747 394z"/>
<path style="fill:#80e0e5; stroke:none;" d="M756 394L756 395L776 395L756 394z"/>
<path style="fill:#c1f0f2; stroke:none;" d="M776 394L776 395L781 395L776 394z"/>
<path style="fill:#9be7ea; stroke:none;" d="M1140 394L1140 397L1141 397L1140 394z"/>
<path style="fill:#94e5e9; stroke:none;" d="M1199 394L1199 395L1230 395L1199 394z"/>
<path style="fill:#76dee3; stroke:none;" d="M1306 394L1306 397L1307 397L1306 394z"/>
<path style="fill:#73dde2; stroke:none;" d="M422.333 395.667L422.667 396.333L422.333 395.667z"/>
<path style="fill:#7de0e4; stroke:none;" d="M470.333 395.667L470.667 396.333L470.333 395.667z"/>
<path style="fill:#89e2e7; stroke:none;" d="M726 395L726 396L734 396L726 395z"/>
<path style="fill:#9ee8eb; stroke:none;" d="M785 395L785 396L788 396L785 395z"/>
<path style="fill:#84e1e6; stroke:none;" d="M1176 395L1176 396L1182 396L1176 395z"/>
<path style="fill:#6adce1; stroke:none;" d="M1232 395L1232 396L1235 396L1232 395z"/>
<path style="fill:#5fd9de; stroke:none;" d="M1348 395L1348 398L1349 398L1348 395z"/>
<path style="fill:#80e0e5; stroke:none;" d="M231 396L231 397L260 397L231 396z"/>
<path style="fill:#baeef1; stroke:none;" d="M260 396L260 397L272 397L260 396z"/>
<path style="fill:#80e0e5; stroke:none;" d="M704 396L704 397L710 397L704 396z"/>
<path style="fill:#9be7ea; stroke:none;" d="M789.667 396.333L790.333 396.667L789.667 396.333z"/>
<path style="fill:#6ddce2; stroke:none;" d="M858 396L858 399L859 399L858 396z"/>
<path style="fill:#b5edf0; stroke:none;" d="M1150 396L1150 397L1156 397L1150 396z"/>
<path style="fill:#66dbe0; stroke:none;" d="M1156 396L1156 397L1162 397L1156 396z"/>
<path style="fill:#91e5e9; stroke:none;" d="M1752.33 396.667L1752.67 397.333L1752.33 396.667z"/>
<path style="fill:#5bd8de; stroke:none;" d="M223 397L223 398L227 398L223 397z"/>
<path style="fill:#30ced5; stroke:none;" d="M286 397L286 398L294 398L286 397z"/>
<path style="fill:#85e2e6; stroke:none;" d="M505.333 397.667L505.667 398.333L505.333 397.667z"/>
<path style="fill:#3dd1d8; stroke:none;" d="M692 397L692 398L698 398L692 397z"/>
<path style="fill:#006165; stroke:none;" d="M1691 397L1691 427L1692 427L1693 397L1691 397z"/>
<path style="fill:#63dadf; stroke:none;" d="M219.667 398.333L220.333 398.667L219.667 398.333z"/>
<path style="fill:#6bdbe1; stroke:none;" d="M553.333 398.667L553.667 399.333L553.333 398.667z"/>
<path style="fill:#58d7dd; stroke:none;" d="M1006 398L1006 399L1013 399L1006 398z"/>
<path style="fill:#8be3e7; stroke:none;" d="M1525 398L1525 403L1526 403L1525 398z"/>
<path style="fill:#000000; stroke:none;" d="M1692 398L1692 431C1703.3 427.242 1698.26 405.491 1694 398L1692 398z"/>
<path style="fill:#77dee3; stroke:none;" d="M423.333 399.667L423.667 400.333L423.333 399.667z"/>
<path style="fill:#5ad8de; stroke:none;" d="M1002.67 399.333L1003.33 399.667L1002.67 399.333z"/>
<path style="fill:#b9eef1; stroke:none;" d="M395 400L395 406L396 406L395 400z"/>
<path style="fill:#64dae0; stroke:none;" d="M998.667 400.333L999.333 400.667L998.667 400.333z"/>
<path style="fill:#7e7e7e; stroke:none;" d="M1695 400L1696 401L1695 400z"/>
<path style="fill:#69dbe0; stroke:none;" d="M1753 400L1753 403L1754 403L1753 400z"/>
<path style="fill:#72dde2; stroke:none;" d="M552.333 402.667L552.667 403.333L552.333 402.667z"/>
<path style="fill:#75dee3; stroke:none;" d="M581 402L581 419L582 419L581 402z"/>
<path style="fill:#52d5db; stroke:none;" d="M636 402L636 409L637 409L636 402z"/>
<path style="fill:#6ddce1; stroke:none;" d="M1347 402L1347 413L1348 413L1347 402z"/>
<path style="fill:#7c7c7c; stroke:none;" d="M1696 402L1697 403L1696 402z"/>
<path style="fill:#80e0e5; stroke:none;" d="M1900 402L1900 403L1922 403L1900 402z"/>
<path style="fill:#7ce0e4; stroke:none;" d="M424.333 403.667L424.667 404.333L424.333 403.667z"/>
<path style="fill:#8fe4e8; stroke:none;" d="M1573.33 403.667L1573.67 404.333L1573.33 403.667z"/>
<path style="fill:#57d7dd; stroke:none;" d="M1892 403L1892 404L1896 404L1892 403z"/>
<path style="fill:#5a5a5a; stroke:none;" d="M1697.33 404.667L1697.67 405.333L1697.33 404.667z"/>
<path style="fill:#84e1e6; stroke:none;" d="M1887.67 404.333L1888.33 404.667L1887.67 404.333z"/>
<path style="fill:#62dadf; stroke:none;" d="M1883.67 405.333L1884.33 405.667L1883.67 405.333z"/>
<path style="fill:#7bdfe4; stroke:none;" d="M395 406L395 415L396 415L395 406z"/>
<path style="fill:#79dfe4; stroke:none;" d="M551.333 406.667L551.667 407.333L551.333 406.667z"/>
<path style="fill:#5bd8de; stroke:none;" d="M1879.67 406.333L1880.33 406.667L1879.67 406.333z"/>
<path style="fill:#80e1e5; stroke:none;" d="M425.333 407.667L425.667 408.333L425.333 407.667z"/>
<path style="fill:#bbeff1; stroke:none;" d="M1308 407L1308 545L1309 545L1309 449C1309 437.056 1312.61 417.98 1308 407z"/>
<path style="fill:#b3edf0; stroke:none;" d="M1473 407L1473 413L1474 413L1473 407z"/>
<path style="fill:#7de0e4; stroke:none;" d="M1572.33 407.667L1572.67 408.333L1572.33 407.667z"/>
<path style="fill:#c4f1f3; stroke:none;" d="M1754 407L1754 423L1755 423L1754 407z"/>
<path style="fill:#6adce1; stroke:none;" d="M1875.67 407.333L1876.33 407.667L1875.67 407.333z"/>
<path style="fill:#a8eaed; stroke:none;" d="M473.333 408.667L473.667 409.333L473.333 408.667z"/>
<path style="fill:#6bdbe1; stroke:none;" d="M1250.33 408.667L1250.67 409.333L1250.33 408.667z"/>
<path style="fill:#707070; stroke:none;" d="M1698 408L1698 411L1699 411L1698 408z"/>
<path style="fill:#75dee3; stroke:none;" d="M1871.67 408.333L1872.33 408.667L1871.67 408.333z"/>
<path style="fill:#a9eaed; stroke:none;" d="M636 409L636 417L637 417L636 409z"/>
<path style="fill:#61d9df; stroke:none;" d="M1032 409L1032 412L1033 412L1032 409z"/>
<path style="fill:#a0e8ec; stroke:none;" d="M137.333 410.667L137.667 411.333L137.333 410.667z"/>
<path style="fill:#a4e9ec; stroke:none;" d="M340 410L340 421L341 421L340 410z"/>
<path style="fill:#a7eaed; stroke:none;" d="M502.333 410.667L502.667 411.333L502.333 410.667z"/>
<path style="fill:#7fe0e5; stroke:none;" d="M550.333 410.667L550.667 411.333L550.333 410.667z"/>
<path style="fill:#57d7dd; stroke:none;" d="M860 411L860 545L861 545L861 451C861 439.58 864.408 421.504 860 411z"/>
<path style="fill:#353535; stroke:none;" d="M1698 411L1698 414L1699 414L1698 411z"/>
<path style="fill:#a2e9ec; stroke:none;" d="M474.333 412.667L474.667 413.333L474.333 412.667z"/>
<path style="fill:#83e1e6; stroke:none;" d="M1251 412L1251 417L1252 417L1251 412z"/>
<path style="fill:#a0e8ec; stroke:none;" d="M1525 412L1525 421L1526 421L1525 412z"/>
<path style="fill:#a8eaed; stroke:none;" d="M136 414L136 419L137 419L136 414z"/>
<path style="fill:#9ee8eb; stroke:none;" d="M501.333 414.667L501.667 415.333L501.333 414.667z"/>
<path style="fill:#97e6ea; stroke:none;" d="M1033 414L1033 545L1034 545L1034 454C1034 442.58 1037.41 424.504 1033 414z"/>
<path style="fill:#3fd1d8; stroke:none;" d="M962 415L962 545L963 545L963 454C963 442.842 966.308 425.266 962 415z"/>
<path style="fill:#9ce7eb; stroke:none;" d="M475.333 416.667L475.667 417.333L475.333 416.667z"/>
<path style="fill:#6bdbe1; stroke:none;" d="M1629.33 416.667L1629.67 417.333L1629.33 416.667z"/>
<path style="fill:#a6eaed; stroke:none;" d="M1848 416L1848 423L1849 423L1848 416z"/>
<path style="fill:#40d2d8; stroke:none;" d="M1251 417L1251 427L1182 427L1182 428L1252 428L1251 417z"/>
<path style="fill:#62d9df; stroke:none;" d="M1570 417L1570 420L1571 420L1570 417z"/>
<path style="fill:#272727; stroke:none;" d="M1698 417L1698 421L1699 421L1698 417z"/>
<path style="fill:#95e6e9; stroke:none;" d="M500.333 418.667L500.667 419.333L500.333 418.667z"/>
<path style="fill:#8ee4e8; stroke:none;" d="M803 418L803 428L804 428L803 418z"/>
<path style="fill:#95e6e9; stroke:none;" d="M476.333 420.667L476.667 421.333L476.333 420.667z"/>
<path style="fill:#b9eef1; stroke:none;" d="M135 421L135 425L136 425L135 421z"/>
<path style="fill:#5fd9de; stroke:none;" d="M196.333 421.667L196.667 422.333L196.333 421.667z"/>
<path style="fill:#52d5db; stroke:none;" d="M1348 421L1348 425L1349 425L1348 421z"/>
<path style="fill:#9be7eb; stroke:none;" d="M1471.33 421.667L1471.67 422.333L1471.33 421.667z"/>
<path style="fill:#5fd9de; stroke:none;" d="M1628 421L1628 425L1629 425L1628 421z"/>
<path style="fill:#afafaf; stroke:none;" d="M1698.33 421.667L1698.67 422.333L1698.33 421.667z"/>
<path style="fill:#8ce3e7; stroke:none;" d="M499.333 422.667L499.667 423.333L499.333 422.667z"/>
<path style="fill:#009198; stroke:none;" d="M1755 422L1755 423L1791 423C1781.44 418.989 1765.39 422 1755 422M1849 422L1849 423L1941 423L1913 422L1849 422z"/>
<path style="fill:#55d6dc; stroke:none;" d="M547.333 423.667L547.667 424.333L547.333 423.667z"/>
<path style="fill:#72dde2; stroke:none;" d="M1569 423L1569 431L1570 431L1569 423z"/>
<path style="fill:#525252; stroke:none;" d="M1754 423L1754 426L1755 426L1754 423z"/>
<path style="fill:#000000; stroke:none;" d="M1755 423C1752.76 434.894 1749.35 443.699 1743 454L1791 454L1791 423L1755 423z"/>
<path style="fill:#3f3f3f; stroke:none;" d="M1791 423L1791 454L1792 454L1791 423z"/>
<path style="fill:#a6a6a6; stroke:none;" d="M1848 423L1848 454L1849 454L1848 423z"/>
<path style="fill:#8fe4e8; stroke:none;" d="M477.333 424.667L477.667 425.333L477.333 424.667z"/>
<path style="fill:#7ce0e4; stroke:none;" d="M195 425L195 428L196 428L195 425z"/>
<path style="fill:#a7eaed; stroke:none;" d="M1524 425L1524 428L1525 428L1524 425z"/>
<path style="fill:#7f7f7f; stroke:none;" d="M1697 425L1698 426L1697 425z"/>
<path style="fill:#83e1e6; stroke:none;" d="M498.333 426.667L498.667 427.333L498.333 426.667z"/>
<path style="fill:#5cd8de; stroke:none;" d="M546.333 427.667L546.667 428.333L546.333 427.667z"/>
<path style="fill:#a7eaed; stroke:none;" d="M582 427L582 433L583 433L582 427z"/>
<path style="fill:#63d9df; stroke:none;" d="M637 427L637 435L638 435L637 427z"/>
<path style="fill:#40d2d8; stroke:none;" d="M733 427L733 428L803 428L781 427L733 427z"/>
<path style="fill:#bef0f2; stroke:none;" d="M394 428L394 435L395 435L394 428z"/>
<path style="fill:#57d7dd; stroke:none;" d="M430.333 428.667L430.667 429.333L430.333 428.667z"/>
<path style="fill:#88e2e7; stroke:none;" d="M478.333 428.667L478.667 429.333L478.333 428.667z"/>
<path style="fill:#a3e9ec; stroke:none;" d="M721 428L721 429L727 429L721 428z"/>
<path style="fill:#9be7ea; stroke:none;" d="M1169 428L1169 429L1174 429L1169 428z"/>
<path style="fill:#5ad7dd; stroke:none;" d="M1349.33 428.667L1349.67 429.333L1349.33 428.667z"/>
<path style="fill:#99e6ea; stroke:none;" d="M716.667 429.333L717.333 429.667L716.667 429.333z"/>
<path style="fill:#85e1e6; stroke:none;" d="M1164.67 429.333L1165.33 429.667L1164.67 429.333z"/>
<path style="fill:#b4edf0; stroke:none;" d="M1627 429L1627 435L1628 435L1627 429z"/>
<path style="fill:#626262; stroke:none;" d="M1695 429L1696 430L1695 429z"/>
<path style="fill:#808080; stroke:none;" d="M1753 429L1753 432L1754 432L1753 429z"/>
<path style="fill:#007378; stroke:none;" d="M1971.33 429.667L1971.67 430.333L1971.33 429.667z"/>
<path style="fill:#6adbe0; stroke:none;" d="M194 430L194 435L195 435L194 430z"/>
<path style="fill:#33ced5; stroke:none;" d="M339 430L339 438L340 438L339 430z"/>
<path style="fill:#6fdce1; stroke:none;" d="M497 430L497 433L498 433L497 430z"/>
<path style="fill:#91e4e8; stroke:none;" d="M712.667 430.333L713.333 430.667L712.667 430.333z"/>
<path style="fill:#62d9df; stroke:none;" d="M545.333 431.667L545.667 432.333L545.333 431.667z"/>
<path style="fill:#393939; stroke:none;" d="M1692.67 431.333L1693.33 431.667L1692.67 431.333z"/>
<path style="fill:#5bd8dd; stroke:none;" d="M431.333 432.667L431.667 433.333L431.333 432.667z"/>
<path style="fill:#74dee3; stroke:none;" d="M479 432L479 435L480 435L479 432z"/>
<path style="fill:#36cfd6; stroke:none;" d="M582 433L582 444L583 444L582 433z"/>
<path style="fill:#9ce7eb; stroke:none;" d="M1455.67 433.333L1456.33 433.667L1455.67 433.333z"/>
<path style="fill:#6bdce1; stroke:none;" d="M1420 434L1420 435L1425 435L1420 434z"/>
<path style="fill:#84e1e6; stroke:none;" d="M1447 434L1447 435L1451 435L1447 434z"/>
<path style="fill:#a9eaed; stroke:none;" d="M1568 434L1568 463L1569 463L1568 434z"/>
<path style="fill:#6d6d6d; stroke:none;" d="M1752.33 434.667L1752.67 435.333L1752.33 434.667z"/>
<path style="fill:#7fe0e5; stroke:none;" d="M394 435L394 443L395 443L394 435z"/>
<path style="fill:#67dae0; stroke:none;" d="M496 435L496 438L497 438L496 435z"/>
<path style="fill:#69dbe0; stroke:none;" d="M544.333 435.667L544.667 436.333L544.333 435.667z"/>
<path style="fill:#c6f1f3; stroke:none;" d="M637 435L637 443L638 443L637 435z"/>
<path style="fill:#c0f0f2; stroke:none;" d="M1428 435L1428 436L1441 436L1428 435z"/>
<path style="fill:#60d9de; stroke:none;" d="M432.333 436.667L432.667 437.333L432.333 436.667z"/>
<path style="fill:#90e4e8; stroke:none;" d="M480 437L480 440L481 440L480 437z"/>
<path style="fill:#8ee4e8; stroke:none;" d="M339 438L339 446L340 446L339 438z"/>
<path style="fill:#919191; stroke:none;" d="M1751 438L1752 439L1751 438z"/>
<path style="fill:#8fe4e8; stroke:none;" d="M193 439L193 458L194 458L193 439z"/>
<path style="fill:#6fdce1; stroke:none;" d="M543.333 439.667L543.667 440.333L543.333 439.667z"/>
<path style="fill:#64dadf; stroke:none;" d="M433.333 440.667L433.667 441.333L433.333 440.667z"/>
<path style="fill:#86e2e6; stroke:none;" d="M495.333 441.667L495.667 442.333L495.333 441.667z"/>
<path style="fill:#6e6e6e; stroke:none;" d="M1750 441L1751 442L1750 441z"/>
<path style="fill:#8ae3e7; stroke:none;" d="M481 442L481 445L482 445L481 442z"/>
<path style="fill:#76dee3; stroke:none;" d="M542.333 443.667L542.667 444.333L542.333 443.667z"/>
<path style="fill:#a3a3a3; stroke:none;" d="M1749 443L1750 444L1749 443z"/>
<path style="fill:#69dbe0; stroke:none;" d="M434.333 444.667L434.667 445.333L434.333 444.667z"/>
<path style="fill:#a2a2a2; stroke:none;" d="M1748 445L1749 446L1748 445z"/>
<path style="fill:#75dee3; stroke:none;" d="M494 446L494 449L495 449L494 446z"/>
<path style="fill:#79dfe4; stroke:none;" d="M482 447L482 450L483 450L482 447z"/>
<path style="fill:#7de0e4; stroke:none;" d="M541.333 447.667L541.667 448.333L541.333 447.667z"/>
<path style="fill:#8f8f8f; stroke:none;" d="M1747 447L1748 448L1747 447z"/>
<path style="fill:#6ddce1; stroke:none;" d="M435.333 448.667L435.667 449.333L435.333 448.667z"/>
<path style="fill:#5fd9de; stroke:none;" d="M638 449L638 455L639 455L638 449z"/>
<path style="fill:#929292; stroke:none;" d="M1745 450L1746 451L1745 450z"/>
<path style="fill:#5fd9df; stroke:none;" d="M493.333 451.667L493.667 452.333L493.333 451.667z"/>
<path style="fill:#71dde2; stroke:none;" d="M436.333 452.667L436.667 453.333L436.333 452.667z"/>
<path style="fill:#5cd8de; stroke:none;" d="M483.333 452.667L483.667 453.333L483.333 452.667z"/>
<path style="fill:#006165; stroke:none;" d="M1945 453L1945 454L1948 454L1945 453z"/>
<path style="fill:#3fd1d8; stroke:none;" d="M1791 454L1791 545L1792 545L1792 482L1791 454z"/>
<path style="fill:#a6eaed; stroke:none;" d="M1848 454L1848 545L1849 545L1849 482L1848 454z"/>
<path style="fill:#92e5e9; stroke:none;" d="M583 455L583 462L584 462L583 455z"/>
<path style="fill:#a1e8ec; stroke:none;" d="M638 455L638 461L639 461L638 455z"/>
<path style="fill:#76dee3; stroke:none;" d="M437.333 456.667L437.667 457.333L437.333 456.667z"/>
<path style="fill:#b9eef1; stroke:none;" d="M393 457L393 465L394 465L393 457z"/>
<path style="fill:#7ce0e4; stroke:none;" d="M492 457L492 460L493 460L492 457z"/>
<path style="fill:#5ad7dd; stroke:none;" d="M338 458L338 465L339 465L338 458z"/>
<path style="fill:#64dadf; stroke:none;" d="M484 458L484 461L485 461L484 458z"/>
<path style="fill:#7adfe4; stroke:none;" d="M438.333 460.667L438.667 461.333L438.333 460.667z"/>
<path style="fill:#90e4e8; stroke:none;" d="M679.333 460.667L679.667 461.333L679.333 460.667z"/>
<path style="fill:#c0f0f2; stroke:none;" d="M749 461L749 462L803 462L785 461L749 461M1200 461L1200 462L1252 462L1235 461L1200 461z"/>
<path style="fill:#92e5e9; stroke:none;" d="M134 462L134 469L135 469L134 462z"/>
<path style="fill:#67dae0; stroke:none;" d="M491.333 462.667L491.667 463.333L491.333 462.667z"/>
<path style="fill:#3fd1d8; stroke:none;" d="M583 462L583 469L584 469L583 462z"/>
<path style="fill:#61d9df; stroke:none;" d="M745.667 462.333L746.333 462.667L745.667 462.333z"/>
<path style="fill:#00c2cb; stroke:none;" d="M803 462L769 462C760.452 462 748.757 459.987 741.093 464.558C730.513 470.869 731.123 495.085 740.105 502.442C752.315 512.444 778.063 503.783 790 497.138C793.797 495.025 799.659 492.528 801.972 488.674C805.622 482.594 803 468.992 803 462z"/>
<path style="fill:#8ee4e8; stroke:none;" d="M803 462L803 488L804 488L803 462z"/>
<path style="fill:#a9eaed; stroke:none;" d="M1127.33 462.667L1127.67 463.333L1127.33 462.667z"/>
<path style="fill:#00c2cb; stroke:none;" d="M1251 462L1217 462C1208.9 462 1197.27 459.899 1190 464.09C1179.89 469.919 1179.44 494.931 1188.3 502.197C1200.97 512.576 1225.62 503.941 1238 497.36C1241.92 495.276 1247.68 492.838 1249.97 488.816C1253.57 482.491 1251 469.177 1251 462z"/>
<path style="fill:#2accd3; stroke:none;" d="M1251 462L1251 489L1252 489L1251 462z"/>
<path style="fill:#7ee0e5; stroke:none;" d="M439.333 464.667L439.667 465.333L439.333 464.667z"/>
<path style="fill:#5fd9de; stroke:none;" d="M485 464L485 467L486 467L485 464z"/>
<path style="fill:#59d7dd; stroke:none;" d="M537.333 464.667L537.667 465.333L537.333 464.667z"/>
<path style="fill:#80e1e5; stroke:none;" d="M678 464L678 467L679 467L678 464z"/>
<path style="fill:#6fdce1; stroke:none;" d="M194 465L194 468L195 468L194 465z"/>
<path style="fill:#97e6ea; stroke:none;" d="M338 465L338 470L339 470L338 465z"/>
<path style="fill:#69dbe0; stroke:none;" d="M393 465L393 472L394 472L393 465z"/>
<path style="fill:#7ee1e5; stroke:none;" d="M1484.67 466.333L1485.33 466.667L1484.67 466.333z"/>
<path style="fill:#66dbe0; stroke:none;" d="M1720.67 466.333L1721.33 466.667L1720.67 466.333z"/>
<path style="fill:#6adce1; stroke:none;" d="M1480.67 467.333L1481.33 467.667L1480.67 467.333z"/>
<path style="fill:#78dfe4; stroke:none;" d="M1715 467L1715 468L1718 468L1715 467z"/>
<path style="fill:#5fd9de; stroke:none;" d="M536.333 468.667L536.667 469.333L536.333 468.667z"/>
<path style="fill:#91e4e8; stroke:none;" d="M1474 468L1474 469L1477 469L1474 468z"/>
<path style="fill:#8fe4e8; stroke:none;" d="M1709 468L1709 469L1712 469L1709 468z"/>
<path style="fill:#64dae0; stroke:none;" d="M1467 469L1467 470L1472 470L1467 469z"/>
<path style="fill:#5dd8de; stroke:none;" d="M677 470L677 496L678 496L677 470z"/>
<path style="fill:#77dfe4; stroke:none;" d="M1411 470L1411 471L1416 471L1411 470z"/>
<path style="fill:#52d6dc; stroke:none;" d="M1424 471L1424 472L1450 472L1424 471z"/>
<path style="fill:#79dfe4; stroke:none;" d="M195 472L195 475L196 475L195 472z"/>
<path style="fill:#66dae0; stroke:none;" d="M535.333 472.667L535.667 473.333L535.333 472.667z"/>
<path style="fill:#65dadf; stroke:none;" d="M1569 472L1569 475L1570 475L1569 472z"/>
<path style="fill:#67dae0; stroke:none;" d="M1629 472L1629 475L1630 475L1629 472z"/>
<path style="fill:#5bd8dd; stroke:none;" d="M734.333 473.667L734.667 474.333L734.333 473.667z"/>
<path style="fill:#2dccd4; stroke:none;" d="M1182 475L1182 492L1183 492L1182 475z"/>
<path style="fill:#53d6dc; stroke:none;" d="M1401 475L1401 481L1402 481L1401 475z"/>
<path style="fill:#6ddce1; stroke:none;" d="M534.333 476.667L534.667 477.333L534.333 476.667z"/>
<path style="fill:#87e2e6; stroke:none;" d="M639 476L639 484L640 484L639 476z"/>
<path style="fill:#a8eaed; stroke:none;" d="M196.333 477.667L196.667 478.333L196.333 477.667z"/>
<path style="fill:#c8f2f4; stroke:none;" d="M733 477L733 488L734 488L733 477z"/>
<path style="fill:#7adfe4; stroke:none;" d="M1630.33 477.667L1630.67 478.333L1630.33 477.667z"/>
<path style="fill:#94e5e9; stroke:none;" d="M1570 478L1570 481L1571 481L1570 478z"/>
<path style="fill:#9be7eb; stroke:none;" d="M584 479L584 486L585 486L584 479z"/>
<path style="fill:#73dde2; stroke:none;" d="M533.333 480.667L533.667 481.333L533.333 480.667z"/>
<path style="fill:#a4e9ec; stroke:none;" d="M1360.33 481.667L1360.67 482.333L1360.33 481.667z"/>
<path style="fill:#95e6e9; stroke:none;" d="M136 482L136 485L137 485L136 482z"/>
<path style="fill:#7adfe4; stroke:none;" d="M532.333 484.667L532.667 485.333L532.333 484.667z"/>
<path style="fill:#8ce3e7; stroke:none;" d="M1571 484L1571 487L1572 487L1571 484z"/>
<path style="fill:#b4edef; stroke:none;" d="M392 485L392 494L393 494L392 485z"/>
<path style="fill:#56d6dc; stroke:none;" d="M444.333 485.667L444.667 486.333L444.333 485.667z"/>
<path style="fill:#98e6ea; stroke:none;" d="M1359.33 485.667L1359.67 486.333L1359.33 485.667z"/>
<path style="fill:#49d3da; stroke:none;" d="M584 486L584 494L585 494L584 486z"/>
<path style="fill:#77dee3; stroke:none;" d="M337 487L337 492L338 492L337 487z"/>
<path style="fill:#6edce1; stroke:none;" d="M137 488L137 491L138 491L137 488z"/>
<path style="fill:#80e0e5; stroke:none;" d="M531.333 488.667L531.667 489.333L531.333 488.667z"/>
<path style="fill:#63dadf; stroke:none;" d="M1358 489L1358 500L1359 500L1358 489z"/>
<path style="fill:#73dde2; stroke:none;" d="M1572.33 489.667L1572.67 490.333L1572.33 489.667z"/>
<path style="fill:#5ad8de; stroke:none;" d="M1411.67 491.333L1412.33 491.667L1411.67 491.333z"/>
<path style="fill:#68dbe0; stroke:none;" d="M530.333 492.667L530.667 493.333L530.333 492.667z"/>
<path style="fill:#5fd9df; stroke:none;" d="M1415 492L1415 493L1420 493L1415 492z"/>
<path style="fill:#5bd8dd; stroke:none;" d="M1573.33 493.667L1573.67 494.333L1573.33 493.667z"/>
<path style="fill:#82e1e5; stroke:none;" d="M1431 494L1431 495L1438 495L1431 494z"/>
<path style="fill:#76dfe3; stroke:none;" d="M1440 495L1440 496L1445 496L1440 495z"/>
<path style="fill:#7ce0e4; stroke:none;" d="M139.333 496.667L139.667 497.333L139.333 496.667z"/>
<path style="fill:#62d9df; stroke:none;" d="M640 496L640 502L641 502L640 496z"/>
<path style="fill:#6bdce1; stroke:none;" d="M1449 496L1449 497L1454 497L1449 496z"/>
<path style="fill:#7ce0e5; stroke:none;" d="M1457 497L1457 498L1462 498L1457 497z"/>
<path style="fill:#71dde2; stroke:none;" d="M1466 498L1466 499L1471 499L1466 498z"/>
<path style="fill:#cdf3f5; stroke:none;" d="M585 499L585 507L586 507L585 499z"/>
<path style="fill:#90e4e8; stroke:none;" d="M1126 499L1126 504L1127 504L1126 499z"/>
<path style="fill:#82e1e5; stroke:none;" d="M1474 499L1474 500L1479 500L1474 499z"/>
<path style="fill:#a2e8ec; stroke:none;" d="M293 500L293 501L296 501L293 500z"/>
<path style="fill:#60d9df; stroke:none;" d="M1485 500L1485 501L1488 501L1485 500z"/>
<path style="fill:#bceff1; stroke:none;" d="M1737 500L1737 501L1743 501L1737 500z"/>
<path style="fill:#90e4e8; stroke:none;" d="M219.667 501.333L220.333 501.667L219.667 501.333z"/>
<path style="fill:#77dfe4; stroke:none;" d="M281 501L281 502L288 502L281 501z"/>
<path style="fill:#9ae7ea; stroke:none;" d="M1490 501L1490 502L1493 502L1490 501z"/>
<path style="fill:#73dee3; stroke:none;" d="M1650.67 501.333L1651.33 501.667L1650.67 501.333z"/>
<path style="fill:#c0f0f2; stroke:none;" d="M1726 501L1726 502L1731 502L1726 501z"/>
<path style="fill:#95e5e9; stroke:none;" d="M224.667 502.333L225.333 502.667L224.667 502.333z"/>
<path style="fill:#8de3e7; stroke:none;" d="M264 502L264 503L277 503L264 502z"/>
<path style="fill:#a4e9ec; stroke:none;" d="M640 502L640 508L641 508L640 502z"/>
<path style="fill:#80e1e5; stroke:none;" d="M1359.33 502.667L1359.67 503.333L1359.33 502.667z"/>
<path style="fill:#57d7dd; stroke:none;" d="M1496.67 502.333L1497.33 502.667L1496.67 502.333z"/>
<path style="fill:#70dde2; stroke:none;" d="M1654.67 502.333L1655.33 502.667L1654.67 502.333z"/>
<path style="fill:#a6e9ed; stroke:none;" d="M1714 502L1714 503L1719 503L1714 502z"/>
<path style="fill:#80e0e5; stroke:none;" d="M231 503L231 504L255 504L231 503z"/>
<path style="fill:#5dd9de; stroke:none;" d="M1500.67 503.333L1501.33 503.667L1500.67 503.333z"/>
<path style="fill:#5bd8de; stroke:none;" d="M1693 503L1693 504L1701 504L1693 503z"/>
<path style="fill:#a9eaed; stroke:none;" d="M1701 503L1701 504L1708 504L1701 503z"/>
<path style="fill:#7ae0e4; stroke:none;" d="M678.333 504.667L678.667 505.333L678.333 504.667z"/>
<path style="fill:#91e4e8; stroke:none;" d="M770.667 504.333L771.333 504.667L770.667 504.333z"/>
<path style="fill:#97e6e9; stroke:none;" d="M1219.67 504.333L1220.33 504.667L1219.67 504.333z"/>
<path style="fill:#7be0e4; stroke:none;" d="M765 505L765 506L768 506L765 505z"/>
<path style="fill:#55d7dd; stroke:none;" d="M1194.67 505.333L1195.33 505.667L1194.67 505.333z"/>
<path style="fill:#71dde2; stroke:none;" d="M1745 505L1745 508L1746 508L1745 505z"/>
<path style="fill:#adebee; stroke:none;" d="M298 506L298 511L299 511L298 506z"/>
<path style="fill:#40d2d8; stroke:none;" d="M750 506L750 507L763 507L750 506z"/>
<path style="fill:#65dae0; stroke:none;" d="M1198 506L1198 507L1211 507L1198 506z"/>
<path style="fill:#79dfe4; stroke:none;" d="M460 507L460 508L463 508L460 507z"/>
<path style="fill:#7ee1e5; stroke:none;" d="M514 507L514 508L517 508L514 507z"/>
<path style="fill:#71dde2; stroke:none;" d="M585 507L585 515L586 515L585 507z"/>
<path style="fill:#8ae3e7; stroke:none;" d="M1127.33 507.667L1127.67 508.333L1127.33 507.667z"/>
<path style="fill:#87e2e6; stroke:none;" d="M336 508L336 520L337 520L336 508z"/>
<path style="fill:#40d2d8; stroke:none;" d="M465 508L465 509L509 509C497.537 504.19 477.48 508 465 508z"/>
<path style="fill:#63d9df; stroke:none;" d="M679.333 509.667L679.667 510.333L679.333 509.667z"/>
<path style="fill:#a9eaed; stroke:none;" d="M1746 511L1746 516L1747 516L1746 511z"/>
<path style="fill:#5ad7dd; stroke:none;" d="M299 513L299 516L300 516L299 513z"/>
<path style="fill:#b2edef; stroke:none;" d="M391 514L391 522L392 522L391 514z"/>
<path style="fill:#8ee4e8; stroke:none;" d="M1258 517L1258 520L1259 520L1258 517z"/>
<path style="fill:#b9eef1; stroke:none;" d="M1747 518L1747 522L1748 522L1747 518z"/>
<path style="fill:#60d9de; stroke:none;" d="M641 519L641 528L642 528L641 519z"/>
<path style="fill:#8de4e8; stroke:none;" d="M810.333 519.667L810.667 520.333L810.333 519.667z"/>
<path style="fill:#90e4e8; stroke:none;" d="M300 520L300 524L301 524L300 520z"/>
<path style="fill:#6adbe0; stroke:none;" d="M391 522L391 531L392 531L391 522z"/>
<path style="fill:#8ee4e8; stroke:none;" d="M1259.33 522.667L1259.67 523.333L1259.33 522.667z"/>
<path style="fill:#8ce3e7; stroke:none;" d="M811 524L811 527L812 527L811 524z"/>
<path style="fill:#a3e9ec; stroke:none;" d="M586 527L586 533L587 533L586 527z"/>
<path style="fill:#8de4e8; stroke:none;" d="M1260.33 527.667L1260.67 528.333L1260.33 527.667z"/>
<path style="fill:#a4e9ec; stroke:none;" d="M301 528L301 532L302 532L301 528z"/>
<path style="fill:#8ce3e7; stroke:none;" d="M812.333 529.667L812.667 530.333L812.333 529.667z"/>
<path style="fill:#b0ecef; stroke:none;" d="M1749 531L1749 535L1750 535L1749 531z"/>
<path style="fill:#8de4e8; stroke:none;" d="M1261.33 532.667L1261.67 533.333L1261.33 532.667z"/>
<path style="fill:#7bdfe4; stroke:none;" d="M335 533L335 545L336 545L335 533z"/>
<path style="fill:#66dae0; stroke:none;" d="M586 533L586 541L587 541L586 533z"/>
<path style="fill:#00c2cb; stroke:none;" d="M1405 534.029C1392.58 540.21 1388.53 565.044 1402.04 572.161C1407.44 575.004 1414.1 574.599 1420 575.17C1436.31 576.748 1462.16 579.479 1476.96 571.084C1485.72 566.115 1488.77 548.284 1478.91 542.839C1464.45 534.855 1441.11 536.887 1425 534.579C1419.68 533.818 1409.9 531.59 1405 534.029z"/>
<path style="fill:#7de0e5; stroke:none;" d="M1412 533L1412 534L1417 534L1412 533z"/>
<path style="fill:#8be3e7; stroke:none;" d="M813 534L813 537L814 537L813 534z"/>
<path style="fill:#7be0e4; stroke:none;" d="M1431 535L1431 536L1436 536L1431 535z"/>
<path style="fill:#95e6e9; stroke:none;" d="M1536.33 535.667L1536.67 536.333L1536.33 535.667z"/>
<path style="fill:#6ddce2; stroke:none;" d="M1440 536L1440 537L1445 537L1440 536z"/>
<path style="fill:#8ce3e7; stroke:none;" d="M1262 537L1262 540L1263 540L1262 537z"/>
<path style="fill:#7ae0e4; stroke:none;" d="M1450 537L1450 538L1455 538L1450 537z"/>
<path style="fill:#97e6e9; stroke:none;" d="M1458 538L1458 539L1463 539L1458 538z"/>
<path style="fill:#8ae3e7; stroke:none;" d="M814 539L814 542L815 542L814 539z"/>
<path style="fill:#69dbe1; stroke:none;" d="M1465.67 539.333L1466.33 539.667L1465.67 539.333z"/>
<path style="fill:#87e2e6; stroke:none;" d="M1537.33 539.667L1537.67 540.333L1537.33 539.667z"/>
<path style="fill:#99e6ea; stroke:none;" d="M1471.67 540.333L1472.33 540.667L1471.67 540.333z"/>
<path style="fill:#61d9df; stroke:none;" d="M1732.67 541.333L1733.33 541.667L1732.67 541.333z"/>
<path style="fill:#8ce3e7; stroke:none;" d="M1263 542L1263 545L1264 545L1263 542z"/>
<path style="fill:#64dae0; stroke:none;" d="M281.667 543.333L282.333 543.667L281.667 543.333z"/>
<path style="fill:#aaeaed; stroke:none;" d="M186.667 544.333L187.333 544.667L186.667 544.333z"/>
<path style="fill:#90e4e8; stroke:none;" d="M276 544L276 545L279 545L276 544z"/>
<path style="fill:#acebee; stroke:none;" d="M1538 544L1538 550L1539 550L1538 544z"/>
<path style="fill:#96e6e9; stroke:none;" d="M1623.67 544.333L1624.33 544.667L1623.67 544.333z"/>
<path style="fill:#7fe1e5; stroke:none;" d="M1720 544L1720 545L1723 545L1720 544z"/>
<path style="fill:#a8eaed; stroke:none;" d="M190.667 545.333L191.333 545.667L190.667 545.333z"/>
<path style="fill:#91e4e8; stroke:none;" d="M271 545L271 546L274 546L271 545z"/>
<path style="fill:#90e4e8; stroke:none;" d="M1627.67 545.333L1628.33 545.667L1627.67 545.333z"/>
<path style="fill:#8ce3e7; stroke:none;" d="M1715.67 545.333L1716.33 545.667L1715.67 545.333z"/>
<path style="fill:#71dde2; stroke:none;" d="M194.667 546.333L195.333 546.667L194.667 546.333z"/>
<path style="fill:#92e5e8; stroke:none;" d="M266.667 546.333L267.333 546.667L266.667 546.333z"/>
<path style="fill:#9ee8eb; stroke:none;" d="M1164.67 546.333L1165.33 546.667L1164.67 546.333z"/>
<path style="fill:#5ed9de; stroke:none;" d="M1210.67 546.333L1211.33 546.667L1210.67 546.333z"/>
<path style="fill:#5dd9de; stroke:none;" d="M1631.67 546.333L1632.33 546.667L1631.67 546.333z"/>
<path style="fill:#75dee3; stroke:none;" d="M200.667 547.333L201.333 547.667L200.667 547.333z"/>
<path style="fill:#66dbe0; stroke:none;" d="M758.667 547.333L759.333 547.667L758.667 547.333z"/>
<path style="fill:#a0e8eb; stroke:none;" d="M1168.67 547.333L1169.33 547.667L1168.67 547.333z"/>
<path style="fill:#7ae0e4; stroke:none;" d="M1205 547L1205 548L1208 548L1205 547z"/>
<path style="fill:#5dd9de; stroke:none;" d="M1637 547L1637 548L1640 548L1637 547z"/>
<path style="fill:#81e0e5; stroke:none;" d="M1702 547L1702 548L1705 548L1702 547z"/>
<path style="fill:#acebee; stroke:none;" d="M209 548L209 549L214 549L209 548M247 548L247 549L255 549L247 548z"/>
<path style="fill:#5bd8de; stroke:none;" d="M753 548L753 549L756 549L753 548z"/>
<path style="fill:#74dee3; stroke:none;" d="M1172.67 548.333L1173.33 548.667L1172.67 548.333z"/>
<path style="fill:#93e5e9; stroke:none;" d="M1199 548L1199 549L1202 549L1199 548z"/>
<path style="fill:#70dde2; stroke:none;" d="M1643 548L1643 549L1648 549L1643 548z"/>
<path style="fill:#bceff1; stroke:none;" d="M1685 548L1685 549L1693 549L1685 548z"/>
<path style="fill:#7ce0e5; stroke:none;" d="M220 549L220 550L234 550L220 549z"/>
<path style="fill:#4bd4db; stroke:none;" d="M234 549L234 550L243 550L234 549z"/>
<path style="fill:#80e0e5; stroke:none;" d="M730 549L730 550L744 550L730 549M1178 549L1178 550L1196 550L1178 549z"/>
<path style="fill:#69dbe1; stroke:none;" d="M1653 549L1653 550L1681 550L1653 549z"/>
<path style="fill:#6ddce1; stroke:none;" d="M1340 550L1340 553L1341 553L1340 550z"/>
<path style="fill:#6adbe0; stroke:none;" d="M1339 555L1339 571L1340 571L1339 555z"/>
<path style="fill:#9fe8eb; stroke:none;" d="M1484 557L1484 561L1485 561L1484 557z"/>
<path style="fill:#75dee3; stroke:none;" d="M1538 564L1538 569L1539 569L1538 564z"/>
<path style="fill:#9de8eb; stroke:none;" d="M1537 572L1537 575L1538 575L1537 572z"/>
<path style="fill:#96e6e9; stroke:none;" d="M1470.67 573.333L1471.33 573.667L1470.67 573.333z"/>
<path style="fill:#9ce7eb; stroke:none;" d="M1409 574L1409 575L1412 575L1409 574z"/>
<path style="fill:#8ce3e7; stroke:none;" d="M1415 575L1415 576L1423 576L1415 575z"/>
<path style="fill:#6edde2; stroke:none;" d="M1452 575L1452 576L1458 576L1452 575z"/>
<path style="fill:#5fd9de; stroke:none;" d="M1535.33 581.667L1535.67 582.333L1535.33 581.667z"/>
<path style="fill:#70dde2; stroke:none;" d="M1502.67 611.333L1503.33 611.667L1502.67 611.333z"/>
<path style="fill:#87e2e6; stroke:none;" d="M1375.67 612.333L1376.33 612.667L1375.67 612.333z"/>
<path style="fill:#79dfe4; stroke:none;" d="M1379.67 613.333L1380.33 613.667L1379.67 613.333z"/>
<path style="fill:#7de0e5; stroke:none;" d="M1494 613L1494 614L1497 614L1494 613z"/>
<path style="fill:#86e2e6; stroke:none;" d="M1489 614L1489 615L1492 615L1489 614z"/>
<path style="fill:#67dbe0; stroke:none;" d="M1390 615L1390 616L1393 616L1390 615z"/>
<path style="fill:#9de7eb; stroke:none;" d="M1483 615L1483 616L1486 616L1483 615z"/>
<path style="fill:#67dbe0; stroke:none;" d="M1397 616L1397 617L1400 617L1397 616z"/>
<path style="fill:#58d7dd; stroke:none;" d="M1478 616L1478 617L1481 617L1478 616z"/>
<path style="fill:#4dd5db; stroke:none;" d="M1406 617L1406 618L1410 618L1406 617z"/>
<path style="fill:#8ee4e8; stroke:none;" d="M1410 617L1410 618L1415 618L1410 617z"/>
<path style="fill:#63dadf; stroke:none;" d="M1466 617L1466 618L1471 618L1466 617z"/>
<path style="fill:#40d2d8; stroke:none;" d="M1422 618L1422 619L1457 619L1422 618z"/>
</svg>
